# xmcd
#
# Track frame offsets:
#	150
#	20730
#	34226
#	52337
#	70205
#	84628
#	99839
#	115784
#	127916
#	144987
#	158945
#	172718
#	186888
#	199169
#
# Disc length: 2868 seconds
#
# Revision: 0
# Processed by: cddbd v1.5.2PL0 Copyright (c) Steve Scherf et al.
# Submitted via: EasyCDDAExtractor 11.1.0.1
#
DISCID=bc0b320e
DTITLE=Various Artist - Mr Music country no 06
DYEAR=2008
DGENRE=country
TTITLE0=Kevin Fowler - The Lord loves the drinkin' man
TTITLE1=Kim Carson - Going back to Louisiana
TTITLE2=Tommy Alverson - Just like Hank
TTITLE3=Jernie Talles - Shooting candle at the moon
TTITLE4=Billy Mata - Private party
TTITLE5=Kenny and Amanda Smith band - Till I get home
TTITLE6=Tony Booth - Is this all there is to a honky tonk
TTITLE7=Mike Silar - Dance with me
TTITLE8=Swinging Doors - The Tapas bar
TTITLE9=Billy Yates - Happy
TTITLE10=Kimmerly Murrey and Justin Trevino - Don't believe me I'm lying
TTITLE11=Bo Göran Svensson and Pauline Reese - He drikks tequila
TTITLE12=W.C.Edgar - Close up the honky tonks
TTITLE13=Randy Archer - I'm forgiven
EXTD=
EXTT0=
EXTT1=
EXTT2=
EXTT3=
EXTT4=
EXTT5=
EXTT6=
EXTT7=
EXTT8=
EXTT9=
EXTT10=
EXTT11=
EXTT12=
EXTT13=
PLAYORDER=
